HIERARCHY
ROOT Hips
{
	OFFSET 0.000000 0.000000 0.000000
	CHANNELS 6 Xposition Yposition Zposition Zrotation Yrotation Xrotation 
	JOINT LHipJoint
	{
		OFFSET 0.000000 0.000000 0.000000
		CHANNELS 3 Zrotation Yrotation Xrotation
		JOINT LeftUpLeg
		{
			OFFSET 1.363060 -1.794630 0.839290
			CHANNELS 3 Zrotation Yrotation Xrotation
			JOINT LeftLeg
			{
				OFFSET 2.448110 -6.726130 0.000000
				CHANNELS 3 Zrotation Yrotation Xrotation
				JOINT LeftFoot
				{
					OFFSET 2.562200 -7.039590 0.000000
					CHANNELS 3 Zrotation Yrotation Xrotation
					JOINT LeftToeBase
					{
						OFFSET 0.157640 -0.433110 2.322550
						CHANNELS 3 Zrotation Yrotation Xrotation
						End Site
						{
							OFFSET 0.000000 0.000000 0.000000
						}
					}
				}
			}
		}
	}
	JOINT RHipJoint
	{
		OFFSET 0.000000 0.000000 0.000000
		CHANNELS 3 Zrotation Yrotation Xrotation
		JOINT RightUpLeg
		{
			OFFSET -1.305520 -1.794630 0.839290
			CHANNELS 3 Zrotation Yrotation Xrotation
			JOINT RightLeg
			{
				OFFSET -2.542530 -6.985550 0.000000
				CHANNELS 3 Zrotation Yrotation Xrotation
				JOINT RightFoot
				{
					OFFSET -2.568260 -7.056230 0.000000
					CHANNELS 3 Zrotation Yrotation Xrotation
					JOINT RightToeBase
					{
						OFFSET -0.164730 -0.452590 2.363150
						CHANNELS 3 Zrotation Yrotation Xrotation
						End Site
						{
							OFFSET 0.000000 0.000000 0.000000
						}
					}
				}
			}
		}
	}
	JOINT LowerBack
	{
		OFFSET 0.000000 0.000000 0.000000
		CHANNELS 3 Zrotation Yrotation Xrotation
		JOINT Spine
		{
			OFFSET 0.028270 2.035590 -0.193380
			CHANNELS 3 Zrotation Yrotation Xrotation
			JOINT Spine1
			{
				OFFSET 0.056720 2.048850 -0.042750
				CHANNELS 3 Zrotation Yrotation Xrotation
				JOINT Neck
				{
					OFFSET 0.000000 0.000000 0.000000
					CHANNELS 3 Zrotation Yrotation Xrotation
					JOINT Neck1
					{
						OFFSET -0.054170 1.746240 0.172020
						CHANNELS 3 Zrotation Yrotation Xrotation
						JOINT Head
						{
							OFFSET 0.104070 1.761360 -0.123970
							CHANNELS 3 Zrotation Yrotation Xrotation
							End Site
							{
								OFFSET 0.000000 0.000000 0.000000
							}
						}
					}
				}
				JOINT LeftShoulder
				{
					OFFSET 0.000000 0.000000 0.000000
					CHANNELS 3 Zrotation Yrotation Xrotation
					JOINT LeftArm
					{
						OFFSET 3.362410 1.200890 -0.311210
						CHANNELS 3 Zrotation Yrotation Xrotation
						JOINT LeftForeArm
						{
							OFFSET 4.983000 -0.000000 -0.000000
							CHANNELS 3 Zrotation Yrotation Xrotation
							JOINT LeftHand
							{
								OFFSET 3.483560 -0.000000 -0.000000
								CHANNELS 3 Zrotation Yrotation Xrotation
								JOINT LeftFingerBase
								{
									OFFSET 0.000000 0.000000 0.000000
									CHANNELS 3 Zrotation Yrotation Xrotation
									JOINT LeftHandIndex1
									{
										OFFSET 0.715260 -0.000000 -0.000000
										CHANNELS 3 Zrotation Yrotation Xrotation
										End Site
										{
											OFFSET 0.000000 0.000000 0.000000
										}
									}
								}
								JOINT LThumb
								{
									OFFSET 0.000000 0.000000 0.000000
									CHANNELS 3 Zrotation Yrotation Xrotation
									End Site
									{
										OFFSET 0.000000 0.000000 0.000000
									}
								}
							}
						}
					}
				}
				JOINT RightShoulder
				{
					OFFSET 0.000000 0.000000 0.000000
					CHANNELS 3 Zrotation Yrotation Xrotation
					JOINT RightArm
					{
						OFFSET -3.136600 1.374050 -0.404650
						CHANNELS 3 Zrotation Yrotation Xrotation
						JOINT RightForeArm
						{
							OFFSET -5.241900 -0.000000 -0.000000
							CHANNELS 3 Zrotation Yrotation Xrotation
							JOINT RightHand
							{
								OFFSET -3.444170 -0.000000 -0.000000
								CHANNELS 3 Zrotation Yrotation Xrotation
								JOINT RightFingerBase
								{
									OFFSET 0.000000 0.000000 0.000000
									CHANNELS 3 Zrotation Yrotation Xrotation
									JOINT RightHandIndex1
									{
										OFFSET -0.622530 -0.000000 -0.000000
										CHANNELS 3 Zrotation Yrotation Xrotation
										End Site
										{
											OFFSET 0.000000 0.000000 0.000000
										}
									}
								}
								JOINT RThumb
								{
									OFFSET 0.000000 0.000000 0.000000
									CHANNELS 3 Zrotation Yrotation Xrotation
									End Site
									{
										OFFSET 0.000000 0.000000 0.000000
									}
								}
							}
						}
					}
				}
			}
		}
	}
}
MOTION
Frames: 12
Frame Time: 0.008333
10.304141 17.969982 26.219055 -177.333120 3.324476 179.840822 0.906217 4.047762 1.941350 -18.477837 -22.192189 -0.647734 -2.771309 7.234593 21.090003 -5.200083 17.558904 -9.382441 2.756100 -10.289300 -29.918700 -4.992121 -4.165144 0.771950 28.694133 18.102548 6.074247 3.441655 -4.020515 15.429750 4.647341 -21.012055 -17.528362 -0.042500 1.330900 -3.659800 3.749483 0.671982 6.300237 2.203240 1.369995 2.733841 -5.016065 0.386902 -14.092021 -7.735908 -2.130648 -18.270095 14.393862 -3.261378 14.578659 2.328900 -0.828500 5.258700 -1.782275 -10.193133 1.770605 -91.448028 6.195643 23.869494 28.453151 -28.718674 -8.323556 1.158501 0.814072 3.736231 7.602363 -37.185039 -4.042000 -7.125000 0.000000 0.000000 -14.579900 -7.305900 16.837200 0.602237 10.677580 2.783117 91.912764 -4.138446 24.640186 -25.249839 28.634236 -7.239980 0.778459 -0.296540 20.637837 2.562067 -50.631086 -1.331600 7.125000 0.000000 0.000000 67.500200 -69.933400 -46.677600 
10.306464 17.974511 26.206399 -177.384459 3.894165 179.958752 0.911201 4.035146 1.952163 -18.516352 -21.887072 -0.725629 -2.779278 7.232141 21.078294 -5.322788 17.912628 -9.499098 2.908800 -10.546000 -30.763600 -4.986478 -4.157863 0.765675 28.600099 18.365058 6.029684 3.437206 -4.020081 15.395231 4.602619 -20.752441 -17.176090 -0.056000 1.527100 -4.200300 3.645956 0.774900 6.207053 2.268254 1.493138 2.681173 -4.998061 0.453317 -14.021106 -7.624420 -1.997261 -18.140420 14.253772 -3.075102 14.325602 2.278500 -0.758200 5.164400 -1.811527 -10.205533 1.763483 -91.504837 6.199371 23.564257 28.192734 -28.418764 -8.157508 1.178055 0.810667 3.973043 7.514076 -36.738981 -3.937700 -7.125000 0.000000 0.000000 -14.599500 -6.864000 16.762800 0.601200 10.679406 2.783389 92.046586 -4.219542 24.657932 -25.208823 28.594815 -7.229658 0.781139 -0.288110 20.469720 3.106503 -50.779174 -1.757600 7.125000 0.000000 0.000000 68.270100 -69.811800 -47.209800 
10.310528 17.980897 26.194903 -177.438769 4.473159 -179.764060 0.920583 3.991692 1.931207 -18.500894 -21.574253 -0.938887 -2.802133 7.210698 21.004863 -5.407048 18.157364 -9.675757 2.918800 -10.562400 -30.817900 -4.953852 -4.127436 0.745271 28.444261 18.723299 5.762982 3.418330 -4.084255 15.476825 4.582034 -20.562366 -16.802783 -0.085800 1.889300 -5.199800 3.340003 0.899569 6.067474 2.558617 1.632048 2.438745 -4.909209 0.538038 -13.902595 -7.702643 -1.854547 -18.076331 14.271814 -2.869142 14.141909 2.301800 -0.669400 5.098400 -1.874271 -10.214694 1.762085 -91.656449 6.182311 23.126528 27.907880 -28.100918 -7.992891 1.208562 0.806592 4.296282 7.135239 -36.626937 -3.679200 -7.125000 0.000000 0.000000 -14.800500 -6.705400 16.973000 0.588042 10.679728 2.820403 92.029593 -4.667248 24.812482 -25.524416 28.944084 -7.395380 0.777446 -0.276307 20.334030 4.389716 -50.773268 -2.760600 7.125000 0.000000 0.000000 69.174100 -69.383200 -47.485500 
10.314127 17.983916 26.186776 -177.442275 5.065582 -179.510330 0.937704 3.949357 1.898920 -18.465050 -21.351685 -1.129560 -2.822068 7.193542 20.941499 -5.501318 18.425927 -9.841479 2.883800 -10.504500 -30.626500 -4.916122 -4.098217 0.724457 28.329176 19.021519 5.501135 3.401754 -4.144556 15.551812 4.550013 -20.360796 -16.486447 -0.125600 2.284300 -6.292100 3.025183 1.029790 6.017268 2.939837 1.787775 2.140331 -4.834706 0.627145 -13.837546 -7.858960 -1.708009 -18.018635 14.392081 -2.666467 14.009717 2.364600 -0.575200 5.047700 -1.938992 -10.224064 1.778844 -91.806739 6.306214 22.806431 27.715369 -27.890694 -7.899874 1.227870 0.812622 4.490305 6.979757 -37.011961 -3.606300 -7.125000 0.000000 0.000000 -14.917500 -7.065700 17.198800 0.566926 10.687612 2.835036 91.886912 -4.658342 24.955159 -25.173678 28.532319 -7.197725 0.795583 -0.279632 20.545781 4.841223 -49.952479 -3.061700 7.125000 0.000000 0.000000 67.533600 -68.917500 -45.460000 
10.312269 17.981710 26.179693 -177.448411 5.111166 -179.509145 0.933631 3.953297 1.908215 -18.468826 -21.341806 -1.084225 -2.833878 7.166906 20.880685 -5.461949 18.316259 -9.857895 2.781600 -10.332800 -30.061400 -4.918173 -4.095081 0.719969 28.323384 18.971813 5.422883 3.377058 -4.206390 15.711979 4.520063 -20.269790 -16.500860 -0.118100 2.215900 -6.102600 3.077651 0.927910 6.080407 2.924292 1.659802 2.110271 -4.832671 0.563072 -13.872925 -7.687906 -1.736445 -17.883357 14.339410 -2.423069 13.764835 2.345600 -0.336300 4.949300 -1.937592 -10.220789 1.776544 -91.849383 6.540619 22.454380 27.670257 -27.841810 -7.868760 1.246413 0.802967 4.666774 6.555873 -36.886565 -3.323200 -7.125000 0.000000 0.000000 -15.134700 -6.880800 17.424000 0.568747 10.667308 2.827139 91.916867 -4.811411 25.063076 -25.140724 28.492751 -7.175169 0.798322 -0.277819 20.670355 5.161802 -49.662115 -3.293100 7.125000 0.000000 0.000000 67.101600 -68.694700 -44.806800 
10.312385 17.978110 26.173307 -177.524450 5.457416 -179.531961 0.911844 3.957750 1.943644 -18.536331 -21.219565 -1.026920 -2.851639 7.147849 20.863654 -5.357296 18.071748 -10.222353 2.477600 -9.797000 -28.321900 -4.937941 -4.093871 0.714265 28.255608 19.046441 5.382513 3.347051 -4.261004 15.851118 4.495055 -20.106791 -16.235563 -0.087000 1.902400 -5.236100 3.139832 0.931123 6.113464 2.700134 1.661714 2.188152 -4.837011 0.567968 -13.895723 -7.456045 -1.555121 -17.696537 14.331156 -2.240556 13.350786 2.309700 -0.276600 4.801700 -1.912015 -10.228984 1.769709 -91.818455 6.731354 22.004222 27.610170 -27.772221 -7.815535 1.274000 0.782634 5.035180 5.948255 -36.450870 -2.903500 -7.125000 0.000000 0.000000 -15.430700 -6.367900 17.667300 0.586285 10.635253 2.815596 92.021188 -5.026687 25.200370 -25.255323 28.629687 -7.246192 0.793176 -0.272763 20.660990 5.611266 -49.942839 -3.657800 7.125000 0.000000 0.000000 68.091300 -68.663800 -45.631900 
10.311457 17.977878 26.164714 -177.612910 5.792149 -179.494075 0.886172 3.956348 1.957051 -18.613418 -21.151152 -0.994783 -2.866787 7.134364 20.834760 -5.338556 18.053485 -10.441270 2.350400 -9.560800 -27.565700 -4.963823 -4.088578 0.695535 28.170374 19.155959 5.307886 3.316286 -4.312790 15.959273 4.533342 -20.073513 -15.689246 -0.061500 1.600100 -4.401700 3.241724 0.953006 6.183805 2.420828 1.698482 2.138855 -4.866614 0.583347 -13.930821 -7.305817 -1.436590 -17.678164 14.376757 -2.122379 13.119813 2.301000 -0.232000 4.729200 -1.888136 -10.232932 1.773833 -91.777914 6.877819 21.582626 27.406631 -27.556673 -7.703832 1.301205 0.778020 5.510984 5.709323 -36.537472 -2.751400 -7.125000 0.000000 0.000000 -15.570200 -6.426500 17.853200 0.615004 10.610175 2.816700 92.097081 -5.231140 25.191727 -25.311111 28.695044 -7.285962 0.788010 -0.273021 20.864307 5.995490 -50.260071 -3.975800 7.125000 0.000000 0.000000 69.111400 -68.665000 -46.532500 
10.312850 17.979155 26.156470 -177.639591 6.006623 -179.456644 0.882384 3.958185 1.966735 -18.626135 -21.068900 -0.980119 -2.875950 7.115971 20.788421 -5.348094 18.081095 -10.452961 2.344700 -9.550000 -27.531400 -4.977589 -4.081072 0.676369 28.167936 19.257334 5.232039 3.286501 -4.367868 16.063026 4.609438 -20.165701 -15.079501 -0.043500 1.345700 -3.700400 3.275818 0.913989 6.320812 2.352714 1.657526 2.068352 -4.868777 0.559220 -14.014680 -7.143888 -1.319221 -17.800670 14.311552 -1.977651 13.024239 2.266800 -0.169100 4.707800 -1.888718 -10.215500 1.778414 -91.814033 7.058422 21.078197 27.222956 -27.370664 -7.614729 1.324624 0.779393 5.938525 5.568239 -36.907406 -2.678500 -7.125000 0.000000 0.000000 -15.674700 -6.775700 18.066800 0.620737 10.600643 2.827099 92.054094 -5.369068 25.121721 -25.308761 28.696016 -7.289911 0.787413 -0.271090 21.009139 6.717936 -50.344511 -4.542200 7.125000 0.000000 0.000000 69.831400 -68.464300 -46.918500 
10.315753 17.980549 26.149039 -177.659464 6.395430 -179.371467 0.896817 3.948093 1.973450 -18.638024 -20.938158 -1.013936 -2.891859 7.095188 20.746575 -5.351282 18.109714 -10.658545 2.232900 -9.335200 -26.849500 -4.960299 -4.069578 0.668313 28.110607 19.465152 5.101498 3.260828 -4.417250 16.130335 4.654137 -20.146947 -14.413468 -0.027100 1.063300 -2.923000 3.076636 0.928205 6.384139 2.606077 1.664280 2.032608 -4.799478 0.573388 -14.052336 -7.078139 -1.143155 -17.841890 14.225185 -1.745584 12.785927 2.241500 -0.080800 4.635600 -1.922894 -10.204028 1.779280 -91.940012 7.310845 20.621688 27.157321 -27.298211 -7.580046 1.338149 0.777490 6.116112 5.410507 -37.011940 -2.580800 -7.125000 0.000000 0.000000 -15.767800 -6.858300 18.202400 0.592242 10.594394 2.833733 91.823516 -5.429500 25.118227 -25.212150 28.579114 -7.224637 0.797920 -0.268310 20.983849 7.318108 -49.724827 -4.957200 7.125000 0.000000 0.000000 68.860800 -68.029000 -45.505300 
10.316798 17.981942 26.134990 -177.613024 7.017855 -179.215856 0.920787 3.931559 1.955526 -18.621765 -20.822420 -1.022043 -2.914797 7.072090 20.698535 -5.381780 18.227326 -11.000765 2.062000 -8.994100 -25.777000 -4.938974 -4.052518 0.635849 28.089495 19.763840 4.981979 3.236551 -4.465434 16.180821 4.646202 -19.962581 -13.693576 -0.014800 0.786600 -2.161900 2.882613 1.046512 6.582131 2.972424 1.834023 1.650281 -4.794160 0.650675 -14.125771 -7.039939 -0.995612 -17.697557 14.090413 -1.555158 12.540725 2.200600 -0.017700 4.534900 -1.977325 -10.178581 1.798723 -92.101741 7.766770 20.206202 27.118175 -27.242576 -7.552286 1.350245 0.770844 6.242886 5.198410 -36.852034 -2.434000 -7.125000 0.000000 0.000000 -15.872100 -6.674100 18.287200 0.561672 10.580187 2.869162 91.610982 -5.702136 25.108559 -25.155227 28.505205 -7.191041 0.802343 -0.272248 20.965916 7.534364 -49.536055 -5.105100 7.125000 0.000000 0.000000 68.590500 -67.883300 -45.082000 
10.314708 17.980549 26.112580 -177.638640 7.667587 -179.508459 0.846978 4.037318 2.231737 -18.665434 -20.844420 -0.747539 -2.936181 7.015018 20.644523 -5.395547 18.306820 -11.477998 1.819700 -8.479900 -24.181600 -4.990172 -4.111063 0.834986 28.122685 19.975316 5.121762 3.196038 -4.478994 16.269056 4.670999 -19.851448 -12.905480 -0.013900 0.760400 -2.089900 3.414855 1.191979 4.387277 2.413731 1.859561 4.632207 -4.951640 0.710140 -12.982589 -6.902840 -0.779495 -18.021955 14.160956 -1.271656 11.154662 2.180300 0.015000 4.270200 -1.820794 -10.444236 1.623958 -91.768014 6.538871 19.720013 26.963732 -27.083638 -7.443188 1.385252 0.761451 6.512189 4.958447 -36.699136 -2.259300 -7.125000 0.000000 0.000000 -16.002400 -6.495600 18.405100 0.483216 10.576503 2.621451 91.517980 -4.334495 24.881683 -25.052836 28.380998 -7.143899 0.817653 -0.273880 21.026250 7.714126 -49.753847 -5.249200 7.125000 0.000000 0.000000 69.213400 -67.923100 -45.680300 
10.317959 17.984380 26.115251 -177.693985 7.573720 -179.355427 0.828622 4.010946 2.163513 -18.624734 -20.881121 -0.775933 -2.953046 6.986658 20.543776 -5.286176 17.995642 -11.385502 1.669700 -8.141200 -23.143900 -5.018561 -4.086711 0.743947 28.129309 20.016491 5.002534 3.178466 -4.529510 16.333763 4.792847 -20.171853 -12.416019 -0.008300 0.589700 -1.620500 3.537444 1.033510 5.219232 2.134055 1.728076 3.642247 -4.982329 0.617915 -13.427069 -6.830252 -0.646167 -17.888591 14.323008 -1.150902 11.269170 2.219900 0.092900 4.250700 -1.815349 -10.376198 1.694170 -91.757089 7.199740 19.324996 26.899590 -27.013359 -7.406018 1.391185 0.758915 6.754522 4.964462 -36.690478 -2.261300 -7.125000 0.000000 0.000000 -16.000200 -6.491300 18.401300 0.566353 10.532315 2.682745 91.604439 -4.849012 24.655889 -25.003607 28.321365 -7.108522 0.815495 -0.270874 21.150590 7.796982 -49.481235 -5.294700 7.125000 0.000000 0.000000 68.678600 -67.785000 -45.033400 
